<svg width="150" height="140" xmlns="http://www.w3.org/2000/svg"><g fill="#4840BB"><path d="M149.112 138.404l-.007-.434c-.102-.18-.306-.41-.648-.703C116.02 110.824 120.098 55.51 129.31 4.169c.37-2.067.62-3.45-1.025-3.641-10.48-1.224-45.397 4.47-55.42 7.204-2.607.711-2.842 1.465-2.886 3.113-2.745 102.773 60.456 124.293 77.63 127.642.39.076 1.247.173 1.504-.083z"/><path d="M57.865 39.7c-12.866 2.505-24.775 7.396-35.08 11.788-.906.26-2.353 1.8-1.978 3.715 4.066 20.763 23.89 79.31 99.672 83.87 1.743.08 3.503-.24 2.13-1.095-10.22-7.852-46.564-15.929-61.426-95.329-.152-.81-.132-3.9-3.318-2.95z"/><path d="M21.503 88.442C16.988 91.16 5.347 98.794 1.171 102.727c-.827.78-.667 1.33-.303 2.658 3.372 12.292 23.265 33.84 72.683 32.169 2.335-.08 2.345-.794 1.127-1.696-.794-.587-16.414-5.6-30.694-18.737-7.145-6.572-14.413-16.557-19.289-26.048-1.21-2.59-1.822-3.455-3.192-2.63z"/></g></svg>